<svg width="27" height="27" viewBox="0 0 27 27" fill="none" xmlns="http://www.w3.org/2000/svg">
<path d="M21.9929 12.3715C21.481 11.2194 20.7369 10.1853 19.807 9.33399L19.0397 8.62998C19.0137 8.60673 18.9823 8.59023 18.9484 8.58193C18.9145 8.57363 18.8791 8.57379 18.8452 8.58238C18.8114 8.59097 18.7802 8.60774 18.7543 8.63121C18.7285 8.65468 18.7088 8.68413 18.697 8.71699L18.3542 9.70049C18.1406 10.3175 17.7478 10.9477 17.1914 11.5673C17.1545 11.6068 17.1123 11.6174 17.0833 11.62C17.0543 11.6227 17.0095 11.6174 16.9699 11.5805C16.933 11.5488 16.9145 11.5014 16.9172 11.4539C17.0147 9.8666 16.5401 8.07627 15.5013 6.12773C14.6417 4.50879 13.4473 3.2458 11.9549 2.36514L10.8659 1.72441C10.7235 1.64004 10.5416 1.75078 10.5495 1.9169L10.6075 3.18252C10.6471 4.04736 10.5469 4.81201 10.3096 5.44746C10.0195 6.22529 9.60293 6.94775 9.07031 7.59639C8.69966 8.04718 8.27954 8.45491 7.81787 8.81192C6.70598 9.66665 5.80187 10.7619 5.17324 12.0155C4.54616 13.2801 4.21952 14.6724 4.21875 16.084C4.21875 17.3285 4.46396 18.5335 4.94912 19.6699C5.41758 20.7641 6.09361 21.7571 6.93984 22.594C7.79414 23.4378 8.78555 24.1022 9.89033 24.5637C11.0347 25.0436 12.2476 25.2861 13.5 25.2861C14.7524 25.2861 15.9653 25.0436 17.1097 24.5663C18.2117 24.1076 19.2139 23.4386 20.0602 22.5967C20.9145 21.7529 21.5842 20.7668 22.0509 19.6726C22.5353 18.5392 22.7838 17.3191 22.7812 16.0866C22.7812 14.7999 22.5176 13.5501 21.9929 12.3715Z" fill="white"/>
</svg>
